Coordinates
version=1
nRows=6
nColumns=36
inDegrees=yes

Units are S.I. units (second, meters, Newtons, ...)
If the header above contains a line with 'inDegrees', this indicates whether rotational values are in degrees (yes) or radians (no).

endheader
time	pelvis_tilt	pelvis_list	pelvis_rotation	pelvis_tx	pelvis_ty	pelvis_tz	hip_flexion_r	hip_adduction_r	hip_rotation_r	knee_angle_r	knee_angle_r_beta	ankle_angle_r	subtalar_angle_r	mtp_angle_r	hip_flexion_l	hip_adduction_l	hip_rotation_l	knee_angle_l	knee_angle_l_beta	ankle_angle_l	subtalar_angle_l	mtp_angle_l	lumbar_extension	lumbar_bending	lumbar_rotation	arm_flex_r	arm_add_r	arm_rot_r	elbow_flex_r	pro_sup_r	arm_flex_l	arm_add_l	arm_rot_l	elbow_flex_l	pro_sup_l
      0.00000000	     -6.25697192	     -1.79152644	      5.69079483	      0.31476160	      1.24587992	     -0.16199961	      7.14215554	      1.48419332	     10.15269451	      2.74520744	      0.04791291	      1.21334407	    -18.13515928	     -7.11195850	      5.84263660	     -2.62293818	      3.91036252	      5.82833395	      0.10172362	      9.54573486	     -8.92461764	     -7.11195850	      2.93708973	     -0.18910231	      1.76885012	      1.85311209	    -14.04579636	     11.83094985	     40.62342234	     86.91735333	     -6.57972928	    -13.33471684	      2.37474570	     19.42462737	     90.44650606
      0.01666670	     -6.01989732	     -0.95091502	      5.04049367	      0.30559567	      1.24641342	     -0.16455650	      7.66076559	      0.46181751	     10.28626645	      4.47489900	      0.07810172	      4.47663504	    -14.82556433	     -7.12739218	      6.10962426	     -1.88490381	      2.17147336	      7.09204512	      0.12377954	      8.16409460	     -8.63840899	     -7.12739218	      1.90861465	     -0.99229141	      2.47221979	      1.69014258	    -14.38037540	     11.78318690	     42.53057342	     87.26559817	     -6.65679234	    -13.51308791	      2.42761593	     20.90840498	     90.95806465
      0.03333330	     -4.33526082	     -0.58960070	      4.83365631	      0.31020634	      1.24631650	     -0.16753520	      6.31723527	      0.16401641	     10.69467528	      5.76811654	      0.10067263	      5.66187832	    -14.14713369	     -7.14329738	      3.87772226	     -1.72825854	      1.28950738	      6.43063100	      0.11223568	      7.78293872	     -8.06065094	     -7.14329738	     -0.52670297	     -1.24910110	      2.49943832	      1.58499979	    -14.58376774	     11.33233000	     43.93520403	     87.30910784	     -5.52853820	    -13.52958187	      2.85933106	     21.46887582	     91.70689631
      0.05000000	     -2.85925248	     -0.15971677	      4.51684562	      0.30649649	      1.24773371	     -0.16738095	      5.56810054	     -0.25403311	     10.30974842	      7.32059109	      0.12776842	      7.04905498	    -12.78433131	     -7.20962502	      2.64839151	     -1.38823036	      0.67786397	      6.97690526	      0.12176997	      7.67741906	     -8.02901957	     -7.20962502	     -3.03411300	     -1.52611505	      2.40514850	      1.71510035	    -14.92157149	     11.04402357	     45.68838597	     84.61779490	     -4.73714705	    -13.78821431	      3.27818087	     22.47748038	     89.38635439
      0.06666670	     -1.70857907	      0.08126231	      4.18961279	      0.30417504	      1.24962905	     -0.16688715	      5.01543364	     -0.41133291	     10.26490180	      8.68720124	      0.15162026	      8.25903261	    -12.20274561	     -7.27065939	      1.72564943	     -1.20148272	      0.47796169	      7.63064535	      0.13317989	      7.65987756	     -8.34519608	     -7.27065939	     -4.94063035	     -1.66816798	      2.56742869	      1.33003040	    -15.40261009	     10.70969352	     47.81954665	     81.94925811	     -4.06005546	    -14.15705358	      4.64684518	     22.96643316	     87.90120550
      0.08333330	     -1.19200551	      0.26668534	      3.96650496	      0.30248429	      1.24690142	     -0.16659059	      5.19443745	     -0.53113073	     10.30622891	     10.20750820	      0.17815463	      9.27322536	    -11.75338409	     -7.30097700	      1.70164986	     -1.09480128	      0.39923415	      8.38851987	      0.14640729	      7.86866873	     -8.78290263	     -7.30097700	     -5.92248187	     -1.92080152	      2.66122066	      1.16677923	    -15.63040724	     10.49836640	     49.45933824	     80.44496322	     -4.14911317	    -14.55721420	      4.91554468	     24.10210958	     86.53811197
